<svg version="1.1" id="Layer_1" xmlns="http://www.w3.org/2000/svg" xmlns:xlink="http://www.w3.org/1999/xlink" x="0px" y="0px" width="100%" viewBox="0 0 500 500" enable-background="new 0 0 500 500" xml:space="preserve">

<path fill="#CA7DE2" opacity="1.000000" stroke="none" d="
M175.363617,270.055237 
	C165.198639,231.280334 180.946564,194.028931 211.601517,173.466080 
	C231.592606,160.056335 253.879166,158.420975 276.773315,162.485596 
	C276.983521,163.168030 277.193726,163.850464 277.403931,164.532883 
	C273.679016,166.268677 270.074280,168.356277 266.207733,169.677567 
	C251.722549,174.627457 241.103729,184.217010 233.887207,197.336624 
	C217.832672,226.523682 227.705551,265.971313 258.164062,282.520355 
	C277.223480,292.875946 296.715210,293.611786 316.183044,284.382996 
	C322.584900,281.348175 328.009552,276.252655 333.883575,272.103027 
	C335.282562,271.114746 336.691681,270.140839 338.432709,268.925323 
	C339.395233,286.532867 315.876038,319.437195 284.957977,329.384369 
	C234.646149,345.571045 187.393311,314.806580 175.363617,270.055237 
M253.148224,163.885498 
	C242.719421,166.630615 231.903351,168.410324 221.971588,172.394485 
	C212.192688,176.317352 204.051361,183.327118 196.973145,191.442612 
	C188.317169,201.367111 181.657318,212.339783 178.677109,225.165573 
	C173.117844,249.090683 175.831833,271.880371 189.335205,292.866699 
	C201.923462,312.430725 220.198013,324.011902 242.510925,328.892151 
	C253.864838,331.375427 265.509552,330.801056 277.041809,327.754272 
	C300.702576,321.503174 318.177277,307.795563 329.420593,286.107788 
	C329.880188,285.221252 329.919128,284.116669 330.346100,282.293823 
	C328.107605,283.278900 326.608551,283.791168 325.253876,284.558380 
	C315.897339,289.857178 305.786316,293.615875 295.195618,294.097809 
	C267.223450,295.370544 245.111862,284.636688 230.929306,259.754395 
	C217.846390,236.801300 219.914459,207.590820 236.450165,187.190170 
	C241.081741,181.476044 247.180130,176.962204 252.499878,171.788971 
	C254.663681,169.684769 258.608582,167.667633 253.148224,163.885498 
z" data-index="1" style="visibility: visible; opacity: 1;"></path>

</svg>